<svg width="20" height="20" viewBox="0 0 20 20" fill="none" xmlns="http://www.w3.org/2000/svg">
<path fill-rule="evenodd" clip-rule="evenodd" d="M15.8333 15H4.16663C3.70746 15 3.33329 14.6267 3.33329 14.1667V6.04171L9.49996 10.6667C9.64829 10.7784 9.82413 10.8334 9.99996 10.8334C10.1758 10.8334 10.3516 10.7784 10.5 10.6667L16.6666 6.04171V14.1667C16.6666 14.6267 16.2925 15 15.8333 15ZM15.2775 5.00004L9.99996 8.95837L4.72246 5.00004H15.2775ZM15.8333 3.33337H4.16663C2.78829 3.33337 1.66663 4.45504 1.66663 5.83337V14.1667C1.66663 15.545 2.78829 16.6667 4.16663 16.6667H15.8333C17.2116 16.6667 18.3333 15.545 18.3333 14.1667V5.83337C18.3333 4.45504 17.2116 3.33337 15.8333 3.33337Z" fill="#344054"/>
<mask id="mask0_10_49301" style="mask-type:luminance" maskUnits="userSpaceOnUse" x="1" y="3" width="18" height="14">
<path fill-rule="evenodd" clip-rule="evenodd" d="M15.8333 15H4.16663C3.70746 15 3.33329 14.6267 3.33329 14.1667V6.04171L9.49996 10.6667C9.64829 10.7784 9.82413 10.8334 9.99996 10.8334C10.1758 10.8334 10.3516 10.7784 10.5 10.6667L16.6666 6.04171V14.1667C16.6666 14.6267 16.2925 15 15.8333 15ZM15.2775 5.00004L9.99996 8.95837L4.72246 5.00004H15.2775ZM15.8333 3.33337H4.16663C2.78829 3.33337 1.66663 4.45504 1.66663 5.83337V14.1667C1.66663 15.545 2.78829 16.6667 4.16663 16.6667H15.8333C17.2116 16.6667 18.3333 15.545 18.3333 14.1667V5.83337C18.3333 4.45504 17.2116 3.33337 15.8333 3.33337Z" fill="white"/>
</mask>
<g mask="url(#mask0_10_49301)">
</g>
</svg>
