<svg width="173" height="52" viewBox="0 0 173 52" fill="none" xmlns="http://www.w3.org/2000/svg">
<path d="M42 18C42 13.5817 38.4183 10 34 10H18C13.5817 10 10 13.5817 10 18V34C10 38.4183 13.5817 42 18 42H34C38.4183 42 42 38.4183 42 34V18Z" fill="white"/>
<path d="M34.8739 31.4905C34.7286 31.2592 34.5386 31.0592 34.3151 30.9021C34.0916 30.7451 33.839 30.6342 33.5721 30.5758C32.5511 30.3384 31.6656 29.7064 31.109 28.818C30.5525 27.9297 30.3703 26.8571 30.6021 25.8348C30.6912 25.4397 30.6616 25.027 30.517 24.6486C30.3724 24.2703 30.1192 23.9431 29.7892 23.7081C29.4592 23.4732 29.0672 23.341 28.6623 23.3282C28.2574 23.3153 27.8578 23.4224 27.5136 23.6359C27.1694 23.8495 26.896 24.1599 26.7276 24.5284C26.5593 24.8968 26.5036 25.3068 26.5675 25.7067C26.6314 26.1067 26.812 26.4789 27.0868 26.7766C27.3615 27.0742 27.7181 27.2841 28.1117 27.3797C28.6209 27.4946 29.1024 27.7088 29.5287 28.0102C29.9549 28.3115 30.3175 28.694 30.5956 29.1357C30.8738 29.5774 31.062 30.0697 31.1495 30.5843C31.2371 31.0988 31.2222 31.6257 31.1057 32.1345C31.0367 32.4625 31.049 32.8025 31.1415 33.1246C31.234 33.4468 31.4039 33.7414 31.6364 33.9829C31.8689 34.2244 32.1569 34.4053 32.4753 34.51C32.7938 34.6147 33.1329 34.6398 33.4633 34.5834C33.7938 34.5269 34.1053 34.3905 34.3709 34.186C34.6365 33.9815 34.8481 33.7152 34.9872 33.4103C35.1262 33.1053 35.1886 32.7709 35.1689 32.4363C35.1491 32.1017 35.0479 31.777 34.8739 31.4905Z" fill="#DD2590"/>
<path d="M22.2368 29.2021C22.2368 29.2062 22.2391 29.2101 22.2428 29.2121C22.6009 29.406 23.0086 29.4891 23.4141 29.4509C23.822 29.4125 24.209 29.2531 24.5256 28.9933C24.8422 28.7333 25.0739 28.3848 25.191 27.9923C25.3081 27.5998 25.3053 27.1812 25.1828 26.7903C25.0277 26.2919 24.9724 25.7678 25.0202 25.2479C25.068 24.7281 25.2179 24.2228 25.4614 23.761C25.7048 23.2993 26.037 22.8901 26.4389 22.557C26.8408 22.2238 27.3045 21.9733 27.8034 21.8197C28.1904 21.6986 28.5328 21.4656 28.7877 21.1502C29.0425 20.8349 29.1984 20.4511 29.2357 20.0474C29.273 19.6436 29.19 19.2378 28.9973 18.8811C28.8045 18.5244 28.5105 18.2327 28.1523 18.0427C27.7941 17.8526 27.3877 17.7728 26.9843 17.8132C26.5808 17.8536 26.1983 18.0124 25.8849 18.2697C25.5715 18.527 25.3412 18.8713 25.223 19.2591C25.1048 19.647 25.1039 20.0611 25.2205 20.4495C25.5266 21.452 25.4231 22.5351 24.9326 23.4615C24.4421 24.3879 23.6046 25.0823 22.6034 25.3927C22.2081 25.5073 21.8563 25.7379 21.5936 26.0547C21.3309 26.3715 21.1693 26.7599 21.1298 27.1695C21.0904 27.5792 21.1748 27.9912 21.3721 28.3524C21.5684 28.7115 21.8673 29.0038 22.2306 29.1919C22.2344 29.1939 22.2368 29.1978 22.2368 29.2021Z" fill="#DD2590"/>
<path d="M27.5259 28.8732C27.2526 28.8828 26.984 28.9468 26.7358 29.0616C26.4875 29.1763 26.2647 29.3393 26.0803 29.5412C25.3648 30.3065 24.3754 30.7574 23.3284 30.7953C22.2814 30.8331 21.262 30.4549 20.4931 29.7433C20.2944 29.5569 20.0607 29.4119 19.8054 29.3166C19.5502 29.2213 19.2786 29.1777 19.0064 29.1884C18.6713 29.2042 18.3452 29.3018 18.0565 29.4726C17.7678 29.6435 17.5253 29.8824 17.3502 30.1685C17.175 30.4546 17.0726 30.7792 17.0518 31.114C17.031 31.4488 17.0925 31.7836 17.2308 32.0892C17.3692 32.3948 17.5802 32.6619 17.8456 32.8672C18.1109 33.0724 18.4224 33.2096 18.7529 33.2668C19.0835 33.3239 19.423 33.2994 19.7419 33.1951C20.0607 33.0909 20.3492 32.9102 20.5822 32.6688C20.9365 32.2852 21.3631 31.9752 21.8374 31.7566C22.3117 31.5381 22.8245 31.4153 23.3464 31.3952C23.8683 31.3752 24.389 31.4583 24.8787 31.6398C25.3684 31.8213 25.8175 32.0977 26.2002 32.453C26.4494 32.6782 26.7499 32.8388 27.0755 32.9209C27.4011 33.003 27.7419 33.0041 28.0681 32.9241C28.3942 32.844 28.6957 32.6853 28.9463 32.4618C29.1969 32.2382 29.3889 31.9567 29.5056 31.6417C29.6222 31.3268 29.6599 30.9881 29.6153 30.6553C29.5708 30.3224 29.4454 30.0056 29.25 29.7324C29.0547 29.4593 28.7954 29.2381 28.4949 29.0883C28.1943 28.9386 27.8616 28.8647 27.5259 28.8732Z" fill="#DD2590"/>
<path d="M60.2393 23.674C60.1882 23.1584 59.9688 22.7578 59.581 22.4723C59.1932 22.1868 58.6669 22.044 58.0021 22.044C57.5504 22.044 57.169 22.108 56.858 22.2358C56.5469 22.3594 56.3082 22.532 56.142 22.7536C55.9801 22.9751 55.8991 23.2266 55.8991 23.5078C55.8906 23.7422 55.9396 23.9467 56.0462 24.1214C56.157 24.2962 56.3082 24.4474 56.5 24.5753C56.6918 24.6989 56.9134 24.8075 57.1648 24.9013C57.4162 24.9908 57.6847 25.0675 57.9702 25.1314L59.1463 25.4126C59.7173 25.5405 60.2415 25.7109 60.7188 25.924C61.196 26.1371 61.6094 26.3991 61.9588 26.7102C62.3082 27.0213 62.5788 27.3878 62.7706 27.8097C62.9666 28.2315 63.0668 28.7152 63.071 29.2607C63.0668 30.0618 62.8622 30.7564 62.4574 31.3445C62.0568 31.9283 61.4773 32.3821 60.7188 32.706C59.9645 33.0256 59.0547 33.1854 57.9893 33.1854C56.9325 33.1854 56.0121 33.0234 55.228 32.6996C54.4482 32.3757 53.8388 31.8963 53.3999 31.2614C52.9652 30.6222 52.7372 29.8317 52.7159 28.8899H55.3942C55.424 29.3288 55.5497 29.6953 55.7713 29.9893C55.9972 30.2791 56.2976 30.4986 56.6726 30.6477C57.0518 30.7926 57.4801 30.8651 57.9574 30.8651C58.4261 30.8651 58.8331 30.7969 59.1783 30.6605C59.5277 30.5241 59.7983 30.3345 59.9901 30.0916C60.1818 29.8487 60.2777 29.5696 60.2777 29.2543C60.2777 28.9602 60.1903 28.7131 60.0156 28.5128C59.8452 28.3125 59.5938 28.142 59.2614 28.0014C58.9332 27.8608 58.5305 27.733 58.0533 27.6179L56.6278 27.2599C55.5241 26.9915 54.6527 26.5717 54.0135 26.0007C53.3743 25.4297 53.0568 24.6605 53.0611 23.6932C53.0568 22.9006 53.2678 22.2081 53.6939 21.6158C54.1243 21.0234 54.7145 20.5611 55.4645 20.2287C56.2145 19.8963 57.0668 19.7301 58.0213 19.7301C58.9929 19.7301 59.8409 19.8963 60.5653 20.2287C61.294 20.5611 61.8608 21.0234 62.2656 21.6158C62.6705 22.2081 62.8793 22.8942 62.892 23.674H60.2393ZM64.8816 33V23.1818H67.6046V33H64.8816ZM66.2495 21.9162C65.8446 21.9162 65.4973 21.782 65.2076 21.5135C64.9221 21.2408 64.7793 20.9148 64.7793 20.5355C64.7793 20.1605 64.9221 19.8388 65.2076 19.5703C65.4973 19.2976 65.8446 19.1612 66.2495 19.1612C66.6543 19.1612 66.9995 19.2976 67.285 19.5703C67.5748 19.8388 67.7196 20.1605 67.7196 20.5355C67.7196 20.9148 67.5748 21.2408 67.285 21.5135C66.9995 21.782 66.6543 21.9162 66.2495 21.9162ZM69.7859 33V23.1818H72.381V24.9141H72.4961C72.7006 24.3388 73.0415 23.8849 73.5188 23.5526C73.9961 23.2202 74.5671 23.054 75.2319 23.054C75.9052 23.054 76.4783 23.2223 76.9513 23.5589C77.4244 23.8913 77.7397 24.343 77.8974 24.9141H77.9996C78.1999 24.3516 78.5621 23.902 79.0863 23.5653C79.6147 23.2244 80.239 23.054 80.9592 23.054C81.8754 23.054 82.619 23.3459 83.19 23.9297C83.7653 24.5092 84.0529 25.3317 84.0529 26.397V33H81.3363V26.9339C81.3363 26.3885 81.1914 25.9794 80.9016 25.7067C80.6119 25.4339 80.2496 25.2976 79.815 25.2976C79.3207 25.2976 78.935 25.4553 78.658 25.7706C78.381 26.0817 78.2425 26.4929 78.2425 27.0043V33H75.6026V26.8764C75.6026 26.3949 75.4641 26.0114 75.1871 25.7259C74.9144 25.4403 74.5543 25.2976 74.1069 25.2976C73.8043 25.2976 73.5316 25.3743 73.2887 25.5277C73.0501 25.6768 72.8604 25.8878 72.7198 26.1605C72.5792 26.429 72.5089 26.7443 72.5089 27.1065V33H69.7859ZM86.2038 36.6818V23.1818H88.8885V24.831H89.0099C89.1293 24.5668 89.3018 24.2983 89.5277 24.0256C89.7578 23.7486 90.0561 23.5185 90.4226 23.3352C90.7933 23.1477 91.2536 23.054 91.8033 23.054C92.5192 23.054 93.1797 23.2415 93.7848 23.6165C94.3899 23.9872 94.8736 24.5476 95.2358 25.2976C95.598 26.0433 95.7791 26.9787 95.7791 28.1037C95.7791 29.1989 95.6023 30.1236 95.2486 30.8778C94.8991 31.6278 94.4219 32.1967 93.8168 32.5845C93.2159 32.968 92.5426 33.1598 91.7969 33.1598C91.2685 33.1598 90.8189 33.0724 90.4482 32.8977C90.0817 32.723 89.7812 32.5036 89.5469 32.2393C89.3125 31.9709 89.1335 31.7003 89.0099 31.4276H88.9268V36.6818H86.2038ZM88.8693 28.0909C88.8693 28.6747 88.9503 29.1839 89.1122 29.6186C89.2741 30.0533 89.5085 30.392 89.8153 30.6349C90.1222 30.8736 90.495 30.9929 90.9339 30.9929C91.3771 30.9929 91.7521 30.8714 92.0589 30.6286C92.3658 30.3814 92.598 30.0405 92.7557 29.6058C92.9176 29.1669 92.9986 28.6619 92.9986 28.0909C92.9986 27.5241 92.9197 27.0256 92.7621 26.5952C92.6044 26.1648 92.3722 25.8281 92.0653 25.5852C91.7585 25.3423 91.3814 25.2209 90.9339 25.2209C90.4908 25.2209 90.1158 25.3381 89.8089 25.5724C89.5064 25.8068 89.2741 26.1392 89.1122 26.5696C88.9503 27 88.8693 27.5071 88.8693 28.0909ZM100.317 19.9091V33H97.5945V19.9091H100.317ZM106.973 33.1918C105.963 33.1918 105.094 32.9872 104.365 32.5781C103.641 32.1648 103.083 31.581 102.691 30.8267C102.298 30.0682 102.102 29.1712 102.102 28.1357C102.102 27.1257 102.298 26.2393 102.691 25.4766C103.083 24.7138 103.634 24.1193 104.346 23.6932C105.062 23.267 105.901 23.054 106.865 23.054C107.512 23.054 108.115 23.1584 108.673 23.3672C109.236 23.5717 109.726 23.8807 110.144 24.294C110.566 24.7074 110.894 25.2273 111.128 25.8537C111.362 26.4759 111.48 27.2045 111.48 28.0398V28.7876H103.189V27.1001H108.916C108.916 26.7081 108.831 26.3608 108.661 26.0582C108.49 25.7557 108.254 25.5192 107.951 25.3487C107.653 25.174 107.306 25.0866 106.909 25.0866C106.496 25.0866 106.129 25.1825 105.81 25.3743C105.494 25.5618 105.247 25.8153 105.068 26.1349C104.889 26.4503 104.798 26.8018 104.794 27.1896V28.794C104.794 29.2798 104.883 29.6996 105.062 30.0533C105.245 30.407 105.503 30.6797 105.835 30.8714C106.168 31.0632 106.562 31.1591 107.018 31.1591C107.32 31.1591 107.597 31.1165 107.849 31.0312C108.1 30.946 108.316 30.8182 108.494 30.6477C108.673 30.4773 108.81 30.2685 108.904 30.0213L111.422 30.1875C111.294 30.7926 111.032 31.321 110.636 31.7727C110.244 32.2202 109.737 32.5696 109.115 32.821C108.497 33.0682 107.783 33.1918 106.973 33.1918ZM118.669 33V19.9091H123.834C124.822 19.9091 125.666 20.0859 126.365 20.4396C127.068 20.7891 127.603 21.2855 127.969 21.929C128.34 22.5682 128.526 23.3203 128.526 24.1854C128.526 25.0547 128.338 25.8026 127.963 26.429C127.588 27.0511 127.045 27.5284 126.333 27.8608C125.626 28.1932 124.769 28.3594 123.763 28.3594H120.305V26.1349H123.316C123.844 26.1349 124.283 26.0625 124.633 25.9176C124.982 25.7727 125.242 25.5554 125.413 25.2656C125.587 24.9759 125.675 24.6158 125.675 24.1854C125.675 23.7507 125.587 23.3842 125.413 23.0859C125.242 22.7876 124.98 22.5618 124.626 22.4084C124.277 22.2507 123.836 22.1719 123.303 22.1719H121.437V33H118.669ZM125.739 27.0426L128.992 33H125.937L122.754 27.0426H125.739ZM134.747 33.1918C133.737 33.1918 132.867 32.9872 132.139 32.5781C131.414 32.1648 130.856 31.581 130.464 30.8267C130.072 30.0682 129.876 29.1712 129.876 28.1357C129.876 27.1257 130.072 26.2393 130.464 25.4766C130.856 24.7138 131.408 24.1193 132.119 23.6932C132.835 23.267 133.675 23.054 134.638 23.054C135.286 23.054 135.889 23.1584 136.447 23.3672C137.009 23.5717 137.499 23.8807 137.917 24.294C138.339 24.7074 138.667 25.2273 138.901 25.8537C139.136 26.4759 139.253 27.2045 139.253 28.0398V28.7876H130.963V27.1001H136.69C136.69 26.7081 136.605 26.3608 136.434 26.0582C136.264 25.7557 136.027 25.5192 135.725 25.3487C135.426 25.174 135.079 25.0866 134.683 25.0866C134.269 25.0866 133.903 25.1825 133.583 25.3743C133.268 25.5618 133.021 25.8153 132.842 26.1349C132.663 26.4503 132.571 26.8018 132.567 27.1896V28.794C132.567 29.2798 132.656 29.6996 132.835 30.0533C133.019 30.407 133.276 30.6797 133.609 30.8714C133.941 31.0632 134.335 31.1591 134.791 31.1591C135.094 31.1591 135.371 31.1165 135.622 31.0312C135.874 30.946 136.089 30.8182 136.268 30.6477C136.447 30.4773 136.583 30.2685 136.677 30.0213L139.195 30.1875C139.068 30.7926 138.806 31.321 138.409 31.7727C138.017 32.2202 137.51 32.5696 136.888 32.821C136.27 33.0682 135.556 33.1918 134.747 33.1918ZM141.03 36.6818V23.1818H143.715V24.831H143.836C143.955 24.5668 144.128 24.2983 144.354 24.0256C144.584 23.7486 144.882 23.5185 145.249 23.3352C145.619 23.1477 146.08 23.054 146.629 23.054C147.345 23.054 148.006 23.2415 148.611 23.6165C149.216 23.9872 149.7 24.5476 150.062 25.2976C150.424 26.0433 150.605 26.9787 150.605 28.1037C150.605 29.1989 150.428 30.1236 150.075 30.8778C149.725 31.6278 149.248 32.1967 148.643 32.5845C148.042 32.968 147.369 33.1598 146.623 33.1598C146.095 33.1598 145.645 33.0724 145.274 32.8977C144.908 32.723 144.607 32.5036 144.373 32.2393C144.139 31.9709 143.96 31.7003 143.836 31.4276H143.753V36.6818H141.03ZM143.695 28.0909C143.695 28.6747 143.776 29.1839 143.938 29.6186C144.1 30.0533 144.335 30.392 144.642 30.6349C144.948 30.8736 145.321 30.9929 145.76 30.9929C146.203 30.9929 146.578 30.8714 146.885 30.6286C147.192 30.3814 147.424 30.0405 147.582 29.6058C147.744 29.1669 147.825 28.6619 147.825 28.0909C147.825 27.5241 147.746 27.0256 147.588 26.5952C147.431 26.1648 147.198 25.8281 146.892 25.5852C146.585 25.3423 146.208 25.2209 145.76 25.2209C145.317 25.2209 144.942 25.3381 144.635 25.5724C144.333 25.8068 144.1 26.1392 143.938 26.5696C143.776 27 143.695 27.5071 143.695 28.0909ZM156.857 33.1918C155.864 33.1918 155.005 32.9808 154.281 32.5589C153.561 32.1328 153.004 31.5405 152.612 30.782C152.22 30.0192 152.024 29.1349 152.024 28.1293C152.024 27.1151 152.22 26.2287 152.612 25.4702C153.004 24.7074 153.561 24.1151 154.281 23.6932C155.005 23.267 155.864 23.054 156.857 23.054C157.85 23.054 158.706 23.267 159.426 23.6932C160.151 24.1151 160.709 24.7074 161.101 25.4702C161.493 26.2287 161.689 27.1151 161.689 28.1293C161.689 29.1349 161.493 30.0192 161.101 30.782C160.709 31.5405 160.151 32.1328 159.426 32.5589C158.706 32.9808 157.85 33.1918 156.857 33.1918ZM156.869 31.0824C157.321 31.0824 157.698 30.9545 158.001 30.6989C158.303 30.4389 158.531 30.0852 158.685 29.6378C158.843 29.1903 158.921 28.6811 158.921 28.1101C158.921 27.5391 158.843 27.0298 158.685 26.5824C158.531 26.1349 158.303 25.7812 158.001 25.5213C157.698 25.2614 157.321 25.1314 156.869 25.1314C156.414 25.1314 156.03 25.2614 155.719 25.5213C155.412 25.7812 155.18 26.1349 155.022 26.5824C154.869 27.0298 154.792 27.5391 154.792 28.1101C154.792 28.6811 154.869 29.1903 155.022 29.6378C155.18 30.0852 155.412 30.4389 155.719 30.6989C156.03 30.9545 156.414 31.0824 156.869 31.0824Z" fill="black"/>
<path d="M114.848 33.1662C114.426 33.1662 114.064 33.017 113.762 32.7188C113.463 32.4162 113.314 32.054 113.314 31.6321C113.314 31.2145 113.463 30.8565 113.762 30.5582C114.064 30.2599 114.426 30.1108 114.848 30.1108C115.257 30.1108 115.615 30.2599 115.922 30.5582C116.229 30.8565 116.382 31.2145 116.382 31.6321C116.382 31.9134 116.31 32.1712 116.165 32.4055C116.024 32.6357 115.839 32.821 115.609 32.9616C115.379 33.098 115.125 33.1662 114.848 33.1662Z" fill="#DD2590"/>
</svg>
