<svg width="20" height="20" viewBox="0 0 20 20" fill="none" xmlns="http://www.w3.org/2000/svg">
<path fill-rule="evenodd" clip-rule="evenodd" d="M18.3333 15.8333C18.3333 16.2933 17.9608 16.6667 17.5 16.6667C17.0391 16.6667 16.6666 16.2933 16.6666 15.8333C16.6666 14.455 15.545 13.3333 14.1666 13.3333C13.5975 13.3333 13.0566 13.5283 12.62 13.8742C13.0733 14.7042 13.3333 15.6558 13.3333 16.6667C13.3333 17.1267 12.9608 17.5 12.5 17.5C12.0391 17.5 11.6666 17.1267 11.6666 16.6667C11.6666 14.3692 9.79746 12.5 7.49996 12.5C5.20246 12.5 3.33329 14.3692 3.33329 16.6667C3.33329 17.1267 2.96079 17.5 2.49996 17.5C2.03913 17.5 1.66663 17.1267 1.66663 16.6667C1.66663 13.45 4.28413 10.8333 7.49996 10.8333C9.10579 10.8333 10.5608 11.4858 11.6166 12.5383C12.3408 11.9783 13.2325 11.6667 14.1666 11.6667C16.4641 11.6667 18.3333 13.5358 18.3333 15.8333ZM14.1666 7.5C14.6266 7.5 15 7.87417 15 8.33333C15 8.7925 14.6266 9.16667 14.1666 9.16667C13.7066 9.16667 13.3333 8.7925 13.3333 8.33333C13.3333 7.87417 13.7066 7.5 14.1666 7.5ZM14.1666 10.8333C15.545 10.8333 16.6666 9.71167 16.6666 8.33333C16.6666 6.955 15.545 5.83333 14.1666 5.83333C12.7883 5.83333 11.6666 6.955 11.6666 8.33333C11.6666 9.71167 12.7883 10.8333 14.1666 10.8333ZM7.49996 4.16667C8.41913 4.16667 9.16663 4.91417 9.16663 5.83333C9.16663 6.7525 8.41913 7.5 7.49996 7.5C6.58079 7.5 5.83329 6.7525 5.83329 5.83333C5.83329 4.91417 6.58079 4.16667 7.49996 4.16667ZM7.49996 9.16667C9.33829 9.16667 10.8333 7.67167 10.8333 5.83333C10.8333 3.995 9.33829 2.5 7.49996 2.5C5.66163 2.5 4.16663 3.995 4.16663 5.83333C4.16663 7.67167 5.66163 9.16667 7.49996 9.16667Z" fill="#344054"/>
</svg>
